<svg xmlns="http://www.w3.org/2000/svg" width="1250" height="1250" fill="none"><path fill="#fff" fill-opacity=".53" d="M0 0h1250v1250H0z"/><g filter="url(#a)"><path fill="#FFCD64" fill-rule="evenodd" d="M501 125c276.142 0 500 223.858 500 500s-223.858 500-500 500V125Zm125 250c138.071 0 250 111.929 250 250S764.071 875 626 875V375Z" clip-rule="evenodd"/><path fill="#66457B" d="M501 125v-1.5h-1.5v1.5h1.5Zm0 1000h-1.5v1.5h1.5v-1.5Zm125-750v-1.5h-1.5v1.5h1.5Zm0 500h-1.5v1.5h1.5V875Zm376.5-250c0-276.971-224.529-501.5-501.5-501.5v3c275.314 0 498.5 223.186 498.5 498.5h3ZM501 1126.5c276.971 0 501.5-224.529 501.5-501.5h-3c0 275.314-223.186 498.5-498.5 498.5v3ZM499.5 125v1000h3V125h-3Zm378 500c0-138.9-112.6-251.5-251.5-251.5v3c137.243 0 248.5 111.257 248.5 248.5h3ZM626 876.5c138.9 0 251.5-112.6 251.5-251.5h-3c0 137.243-111.257 248.5-248.5 248.5v3ZM624.5 375v500h3V375h-3Z"/></g><g filter="url(#b)"><path fill="#66457B" fill-rule="evenodd" d="M281 125c276.142 0 500 223.858 500 500s-223.858 500-500 500V125Zm125 250c138.071 0 250 111.929 250 250S544.071 875 406 875V375Z" clip-rule="evenodd"/><path fill="#FFCD64" d="M281 125v-1.5h-1.5v1.5h1.5Zm0 1000h-1.5v1.5h1.5v-1.5Zm125-750v-1.5h-1.5v1.5h1.5Zm0 500h-1.5v1.5h1.5V875Zm376.5-250c0-276.971-224.529-501.5-501.5-501.5v3c275.314 0 498.5 223.186 498.5 498.5h3ZM281 1126.5c276.971 0 501.5-224.529 501.5-501.5h-3c0 275.314-223.186 498.5-498.5 498.5v3ZM279.5 125v1000h3V125h-3Zm378 500c0-138.9-112.6-251.5-251.5-251.5v3c137.243 0 248.5 111.257 248.5 248.5h3ZM406 876.5c138.9 0 251.5-112.6 251.5-251.5h-3c0 137.243-111.257 248.5-248.5 248.5v3ZM404.5 375v500h3V375h-3Z"/></g><defs><filter id="a" width="511" height="1011" x="495.5" y="123.5" color-interpolation-filters="sRGB" filterUnits="userSpaceOnUse"><feFlood flood-opacity="0" result="BackgroundImageFix"/><feColorMatrix in="SourceAlpha" result="hardAlpha" values="0 0 0 0 0 0 0 0 0 0 0 0 0 0 0 0 0 0 127 0"/><feOffset dy="4"/><feGaussianBlur stdDeviation="2"/><feComposite in2="hardAlpha" operator="out"/><feColorMatrix values="0 0 0 0 0 0 0 0 0 0 0 0 0 0 0 0 0 0 0.25 0"/><feBlend in2="BackgroundImageFix" result="effect1_dropShadow_101_16"/><feBlend in="SourceGraphic" in2="effect1_dropShadow_101_16" result="shape"/></filter><filter id="b" width="511" height="1011" x="275.5" y="123.5" color-interpolation-filters="sRGB" filterUnits="userSpaceOnUse"><feFlood flood-opacity="0" result="BackgroundImageFix"/><feColorMatrix in="SourceAlpha" result="hardAlpha" values="0 0 0 0 0 0 0 0 0 0 0 0 0 0 0 0 0 0 127 0"/><feOffset dy="4"/><feGaussianBlur stdDeviation="2"/><feComposite in2="hardAlpha" operator="out"/><feColorMatrix values="0 0 0 0 0 0 0 0 0 0 0 0 0 0 0 0 0 0 0.25 0"/><feBlend in2="BackgroundImageFix" result="effect1_dropShadow_101_16"/><feBlend in="SourceGraphic" in2="effect1_dropShadow_101_16" result="shape"/></filter></defs></svg>