<svg version="1" xmlns="http://www.w3.org/2000/svg" width="533.333" height="533.333" viewBox="0 0 400.000000 400.000000"><path d="M193.8 53.5c-.2.1-3.2.5-6.8.9-8.4.8-20.1 2.3-21 2.7-.3.1-.9.3-1.5.4-.5.1-1.7.4-2.5.8-.8.3-2.8.9-4.5 1.3-4.5 1.1-4.6 1.1-10 3.2C136.6 67 113.9 78.9 111 82c-.3.3-2.5 1.8-4.9 3.5-4.9 3.3-20 18-24.6 23.9-1.6 2.1-3.7 4.6-4.6 5.6-.8 1-2.4 3.5-3.4 5.4-1.1 2-2.3 3.6-2.7 3.6-.5 0-.8.6-.8 1.4 0 .8-.3 1.6-.7 1.8-.5.1-2.4 3.4-4.3 7.3-1.9 3.8-3.8 7.2-4.1 7.5-.4.3-1.2 2.5-1.9 5s-1.5 4.7-2 5c-.4.3-1.5 3.6-2.5 7.5-.9 3.8-2.1 7.7-2.5 8.5-.5.8-1.1 3.5-1.4 6-.3 2.5-.8 5.8-1.1 7.5-1.7 10.1-2.1 23.7-1.1 34.5 1.2 12.7 1.5 15 2.5 18.6.6 2.1.8 4.1.5 4.5-.2.4 0 1 .5 1.3.5.3 1.2 2.3 1.6 4.3 1.2 5.7 3.4 12.1 6.2 18.3 10 22.1 19.3 36 33.9 50.5 6.4 6.4 22.6 19.5 24 19.5.3 0 1.8.9 3.3 2 11.8 8.3 39.8 18.4 57.6 20.7 7.9 1 33.4 1 41 0 40.5-5.4 79.6-29.6 102.9-63.6 10.6-15.5 18.3-33.1 22.6-51.3 2.9-12.3 3.4-17.3 3.4-33.8.1-19.8-1.3-29.3-6.9-46.5-4.6-14.1-15.7-38.5-17.5-38.5-.5 0-1-.6-1-1.4 0-.7-1-2.5-2.2-3.9-1.3-1.4-3.9-4.8-5.8-7.5-1.9-2.8-3.8-4.8-4.2-4.5-.5.2-.8 0-.8-.6 0-1-10.5-11.6-15.7-15.9-1.6-1.2-3.9-3.1-5.3-4.3-1.3-1.1-4-3-6-4.1-1.9-1.2-3.7-2.4-4-2.7-1.7-1.9-21.3-11.6-25.6-12.7-1.3-.3-2.4-.9-2.4-1.3s-2.4-1.3-5.2-2c-2.9-.7-7.3-1.9-9.8-2.7-2.5-.7-6.3-1.6-8.5-1.9-2.2-.4-5.1-.8-6.5-1-6-1-26.6-2.5-27.2-2z"/></svg>